<svg width="51" height="26" viewBox="0 0 51 26" fill="none" xmlns="http://www.w3.org/2000/svg">
<g clip-path="url(#clip0_108_295)">
<path opacity="0.958" fill-rule="evenodd" clip-rule="evenodd" d="M23.5875 -0.26532C25.2875 -0.26532 26.9875 -0.26532 28.6875 -0.26532C30.072 0.488672 31.1345 1.72677 31.875 3.44897C32.1584 9.63946 32.1584 15.8299 31.875 22.0204C31.1241 23.7566 30.0616 24.9946 28.6875 25.7347C26.9875 25.7347 25.2875 25.7347 23.5875 25.7347C22.0488 24.961 20.9863 23.5461 20.4 21.4898C20.1167 15.653 20.1167 9.81631 20.4 3.97958C20.9639 1.94998 22.0264 0.535019 23.5875 -0.26532ZM25.7125 3.44897C26.2437 3.49001 26.5978 3.84375 26.775 4.51019C27.0584 9.99317 27.0584 15.4762 26.775 20.9592C26.1725 22.2862 25.7475 22.1094 25.5 20.4286C25.1758 14.7508 25.2466 9.09091 25.7125 3.44897Z" fill="#FEFFFE"/>
<path opacity="0.915" fill-rule="evenodd" clip-rule="evenodd" d="M-0.212494 7.16324C-0.212494 6.10202 -0.212494 5.04079 -0.212494 3.97957C1.79035 3.52526 3.49035 2.3756 4.88751 0.530589C6.15469 0.266365 7.42969 0.17793 8.71251 0.265283C8.71251 8.57823 8.71251 16.8911 8.71251 25.2041C6.87085 25.2041 5.02916 25.2041 3.18751 25.2041C3.25827 19.5414 3.18744 13.8816 2.97501 8.22447C2.02826 7.36838 0.965763 7.01467 -0.212494 7.16324Z" fill="#FEFFFE"/>
<path opacity="0.942" fill-rule="evenodd" clip-rule="evenodd" d="M9.5625 0.26532C12.8208 0.26532 16.0792 0.26532 19.3375 0.26532C19.4079 2.57142 19.3371 4.87074 19.125 7.16328C18.1212 13.164 17.2003 19.1777 16.3625 25.2041C14.4993 25.3769 12.6577 25.2 10.8375 24.6735C12.1125 17.9524 13.3875 11.2313 14.6625 4.51022C12.9857 3.98443 11.2857 3.80755 9.5625 3.97961C9.5625 2.74151 9.5625 1.50341 9.5625 0.26532Z" fill="#FEFFFE"/>
<path opacity="0.923" fill-rule="evenodd" clip-rule="evenodd" d="M38.4625 5.04083C39.5959 5.04083 40.7292 5.04083 41.8625 5.04083C41.8625 6.98643 41.8625 8.93197 41.8625 10.8776C43.421 10.8776 44.979 10.8776 46.5375 10.8776C46.5375 12.1156 46.5375 13.3538 46.5375 14.5919C44.979 14.5919 43.421 14.5919 41.8625 14.5919C41.8625 16.5374 41.8625 18.483 41.8625 20.4286C40.7292 20.4286 39.5959 20.4286 38.4625 20.4286C38.4625 18.483 38.4625 16.5374 38.4625 14.5919C36.9042 14.5919 35.3459 14.5919 33.7875 14.5919C33.7875 13.3538 33.7875 12.1156 33.7875 10.8776C35.3459 10.8776 36.9042 10.8776 38.4625 10.8776C38.4625 8.93197 38.4625 6.98643 38.4625 5.04083Z" fill="#FEFFFE"/>
</g>
<defs>
<clipPath id="clip0_108_295">
<rect width="51" height="26" fill="white"/>
</clipPath>
</defs>
</svg>
