<svg width="20" height="24" viewBox="0 0 20 24" fill="none" xmlns="http://www.w3.org/2000/svg">
<path fill-rule="evenodd" clip-rule="evenodd" d="M15.4714 14.7295V2.46094H16.8053C17.4906 2.46094 18.0461 1.91002 18.0461 1.23047C18.0461 0.550922 17.4906 0 16.8053 0H3.19462C2.50935 0 1.95378 0.550922 1.95378 1.23047C1.95378 1.91002 2.50935 2.46094 3.19462 2.46094H4.52853V14.7297L0.730469 23.0897H7.27304C7.50218 22.6811 7.79031 22.3017 8.13294 21.9619C9.09948 21.0034 10.3847 20.4756 11.7517 20.4756C13.1187 20.4756 14.404 21.0035 15.3706 21.9621C15.7132 22.3018 16.0012 22.6811 16.2303 23.0897H19.2695L15.4714 14.7295Z" fill="#417505"/>
</svg>
