<svg width="28" height="38" viewBox="0 0 28 38" fill="none" xmlns="http://www.w3.org/2000/svg">
<path fill-rule="evenodd" clip-rule="evenodd" d="M22.5895 0H25.8196C27.0229 0.00237689 27.9977 0.989651 28 2.20835V35.796C27.999 36.38 27.7688 36.9398 27.36 37.3518C26.9532 37.7659 26.4005 37.999 25.8238 38H4.73636C2.12347 37.9929 0.00704054 35.8493 0 33.203V4.80996C0 2.15854 2.11845 0.00713067 4.73636 0H15.566V11.072C15.566 11.8499 16.3383 12.2302 16.9442 11.2578L19.0777 7.80052L21.2112 11.2578C21.8129 12.2345 22.5895 11.8499 22.5895 11.072V0ZM5.6495 32.3214L26.2249 32.2955V30.6316C26.2226 30.4226 26.0559 30.2537 25.8494 30.2513H4.73636C3.11618 30.2513 1.8028 31.5815 1.8028 33.2225C1.8028 34.8634 3.11618 36.1936 4.73636 36.1936H25.8494C25.9481 36.1938 26.0431 36.155 26.114 36.0855C26.1826 36.0137 26.2209 35.9175 26.2207 35.8176L26.2249 34.1408H5.6495C5.15346 34.1061 4.77903 33.6707 4.81327 33.1683C4.84421 32.7142 5.20104 32.3527 5.6495 32.3214Z" fill="white"/>
</svg>
