<svg width="64" height="61" viewBox="0 0 64 61" fill="none" xmlns="http://www.w3.org/2000/svg">
<path fill-rule="evenodd" clip-rule="evenodd" d="M26.88 2.56842C24.64 0.963158 22.08 0 19.2 0C12.16 0 6.4 5.77895 6.4 12.8421C6.4 19.9053 12.16 25.6842 19.2 25.6842H20.16C19.52 23.7579 19.2 21.5105 19.2 19.2632C19.2 12.5211 22.08 6.42105 26.88 2.56842ZM41.6 35.3158C50.4366 35.3158 57.6 28.1288 57.6 19.2632C57.6 10.3975 50.4366 3.21053 41.6 3.21053C32.7634 3.21053 25.6 10.3975 25.6 19.2632C25.6 28.1288 32.7634 35.3158 41.6 35.3158ZM19.2 61C19.2 48.479 29.12 38.5263 41.6 38.5263C54.08 38.5263 64 48.479 64 61H19.2ZM19.2 28.8947H21.44C22.72 31.7842 24.64 34.3526 26.88 36.2789C22.08 39.1684 18.24 43.3421 16 48.1579H0C0 37.5632 8.64 28.8947 19.2 28.8947Z" fill="#4A90E2"/>
</svg>
