<svg width="38" height="48" viewBox="0 0 38 48" fill="none" xmlns="http://www.w3.org/2000/svg">
<path fill-rule="evenodd" clip-rule="evenodd" d="M31.825 8.11014L28.7375 11.234C34.2 14.1176 38 19.8849 38 26.373C38 35.7447 30.6375 43.194 21.375 43.194C13.0625 43.194 6.175 36.9462 4.9875 28.776H1.1875C0.475 28.776 0 28.2954 0 27.5745V25.1715C0 24.4506 0.475 23.97 1.1875 23.97H13.0625C13.775 23.97 14.25 24.4506 14.25 25.1715V27.5745C14.25 28.2954 13.775 28.776 13.0625 28.776H9.7375C10.925 34.3029 15.675 38.388 21.375 38.388C28.025 38.388 33.25 33.1014 33.25 26.373C33.25 21.0864 29.925 16.761 25.175 15.0788L20.1875 20.1252C19.7125 20.6058 19 20.6058 18.525 20.1252L17.575 19.164L15.4375 21.3267C14.9625 21.8073 14.25 21.8073 13.775 21.3267L12.1125 19.6446C11.6375 19.164 11.6375 18.2028 12.1125 17.7222L14.25 15.7997L13.5375 14.8385C13.0625 14.3579 13.0625 13.637 13.5375 13.1564L24.9375 1.38173C25.4125 0.901126 26.125 0.901126 26.6 1.38173L27.55 2.34293L29.45 0.180225C29.925 -0.0600751 30.875 -0.0600751 31.35 0.180225L33.0125 1.86233C33.25 2.34293 33.25 3.30413 32.775 3.54443L30.875 5.70713L31.825 6.42804C32.3 6.90864 32.3 7.62954 31.825 8.11014ZM21.375 43.194H7.8375C7.3625 43.194 6.8875 43.4343 6.8875 43.9149L4.9875 46.3179C4.5125 47.0388 4.9875 48 5.9375 48H36.8125C37.7625 48 38.2375 47.0388 37.7625 46.3179L35.8625 43.9149C35.625 43.4343 35.15 43.194 34.9125 43.194H21.375Z" fill="#4A90E2"/>
</svg>
