<svg width="48" height="48" viewBox="0 0 48 48" fill="none" xmlns="http://www.w3.org/2000/svg">
<path fill-rule="evenodd" clip-rule="evenodd" d="M35.04 21.36C42.48 19.92 48 13.44 48 5.76C48 3.84 46.56 2.4 44.64 2.4H36V1.2C36 0.48 35.52 0 34.8 0H13.2C12.48 0 12 0.48 12 1.2V2.4H3.36C1.44 2.4 0 3.84 0 5.76C0 13.44 5.52 19.92 12.96 21.36C14.4 24.96 17.76 27.84 21.6 28.56L16.8 38.4H13.2C12.48 38.4 12 38.88 12 39.6V47.04C12 47.52 12.48 48 13.2 48H34.8C35.52 48 36 47.52 36 46.8V39.36C36 38.64 35.52 38.16 34.8 38.16H31.2L26.4 28.32C30.48 27.84 33.6 24.96 35.04 21.36ZM36 7.2H43.2C42.72 11.28 39.84 14.64 36 16.08V7.2ZM4.8 7.2C5.52 11.28 8.16 14.64 12 16.08V7.2H4.8Z" fill="#4A90E2"/>
</svg>
