<svg width="38" height="38" viewBox="0 0 38 38" fill="none" xmlns="http://www.w3.org/2000/svg">
<path fill-rule="evenodd" clip-rule="evenodd" d="M38 3.35294V8.94118H0V3.35294C0 1.50413 1.49825 0 3.33984 0H34.6602C36.5017 0 38 1.50413 38 3.35294ZM32.3594 4.47059H25.6797C25.0649 4.47059 24.5664 4.971 24.5664 5.58824C24.5664 6.20547 25.0649 6.70588 25.6797 6.70588H32.3594C32.9742 6.70588 33.4727 6.20547 33.4727 5.58824C33.4727 4.971 32.9742 4.47059 32.3594 4.47059ZM14.5469 4.47059C15.1617 4.47059 15.6602 4.971 15.6602 5.58824C15.6602 6.20547 15.1617 6.70588 14.5469 6.70588C13.932 6.70588 13.4336 6.20547 13.4336 5.58824C13.4336 4.971 13.932 4.47059 14.5469 4.47059ZM11.207 5.58824C11.207 4.971 10.7086 4.47059 10.0938 4.47059C9.47892 4.47059 8.98047 4.971 8.98047 5.58824C8.98047 6.20547 9.47892 6.70588 10.0938 6.70588C10.7086 6.70588 11.207 6.20547 11.207 5.58824ZM5.64062 4.47059C6.25545 4.47059 6.75391 4.971 6.75391 5.58824C6.75391 6.20547 6.25545 6.70588 5.64062 6.70588C5.0258 6.70588 4.52734 6.20547 4.52734 5.58824C4.52734 4.971 5.0258 4.47059 5.64062 4.47059ZM0 11.1765V34.6471C0 36.4959 1.49825 38 3.33984 38H34.6602C36.5017 38 38 36.4959 38 34.6471V11.1765H0ZM13.0157 27.0684C13.4959 27.454 13.5737 28.1573 13.1896 28.6393C12.8056 29.1213 12.1049 29.1995 11.6249 28.8138L6.05848 24.3432C5.50191 23.8964 5.50154 23.045 6.05848 22.5978L11.6249 18.1272C12.1048 17.7416 12.8055 17.8197 13.1896 18.3017C13.5737 18.7837 13.4959 19.4871 13.0157 19.8726L8.53605 23.4706L13.0157 27.0684ZM16.6834 31.7344L23.3631 16.0873C23.6053 15.5199 23.3435 14.8629 22.7784 14.6198C22.2133 14.3767 21.5588 14.6395 21.3166 15.2068L14.6369 30.8538C14.3947 31.4212 14.6565 32.0783 15.2216 32.3214C15.7869 32.5647 16.4412 32.3016 16.6834 31.7344ZM31.9415 24.3433L26.3751 28.8139C25.8958 29.199 25.195 29.1221 24.8104 28.6394C24.4263 28.1574 24.5041 27.454 24.9843 27.0685L29.464 23.4706L24.9843 19.8727C24.5041 19.4871 24.4263 18.7838 24.8104 18.3018C25.1944 17.8198 25.895 17.7417 26.3751 18.1273L31.9415 22.5979C32.4981 23.0448 32.4985 23.8961 31.9415 24.3433Z" fill="#FF7988"/>
</svg>
