<svg width="64" height="64" viewBox="0 0 64 64" fill="none" xmlns="http://www.w3.org/2000/svg">
<path fill-rule="evenodd" clip-rule="evenodd" d="M60.4975 41.8248H62.0896C63.0448 41.8248 63.6816 42.4633 64 43.4211V46.6139C64 47.5717 63.3632 48.2102 62.408 48.2102H50.3085L54.1294 60.0233C54.4478 61.6197 53.4925 63.2161 51.9005 63.8546C49.9901 64.4932 48.398 62.8968 48.0796 61.6197L43.6219 47.891H20.3781L15.9204 61.6197C15.602 63.2161 13.6915 64.1739 12.0995 63.8546C10.5075 63.5354 9.23383 61.6197 9.87065 60.0233L13.6915 48.2102H1.59204C0.636816 48.2102 0 47.5717 0 46.6139V43.4211C0 42.4633 0.636816 41.8248 1.59204 41.8248H3.18408V6.38546C3.18408 4.7891 4.77612 3.512 6.36816 3.512H28.3383L28.6567 2.23491C29.2935 0.638546 30.2488 0 31.8408 0C33.4328 0 34.7065 0.957819 35.0249 2.23491L35.3433 3.512H57.3134C58.9055 3.512 60.4975 4.7891 60.4975 6.38546V41.8248ZM41.393 41.8248H54.1294V35.4393H41.393V41.8248Z" fill="#4A90E2"/>
</svg>
