<svg width="48" height="48" viewBox="0 0 48 48" fill="none" xmlns="http://www.w3.org/2000/svg">
<path fill-rule="evenodd" clip-rule="evenodd" d="M26.4 0H2.4C0.96 0 0 0.96 0 2.4V45.6C0 47.04 0.96 48 2.4 48H33.6C35.04 48 36 47.04 36 45.6V9.6L26.4 0ZM7.2 7.2H24C25.44 7.2 26.4 8.16 26.4 9.6C26.4 11.04 25.44 12 24 12H7.2C5.76 12 4.8 11.04 4.8 9.6C4.8 8.16 5.76 7.2 7.2 7.2ZM7.2 40.8H28.8C30 40.8 31.2 39.84 31.2 38.4C31.2 36.96 30.24 36 28.8 36H7.2C5.76 36 4.8 36.96 4.8 38.4C4.8 39.84 5.76 40.8 7.2 40.8ZM28.8 31.2H7.2C5.76 31.2 4.8 30.24 4.8 28.8C4.8 27.36 5.76 26.4 7.2 26.4H28.8C30.24 26.4 31.2 27.36 31.2 28.8C31.2 30.24 30 31.2 28.8 31.2ZM7.2 21.6H28.8C30 21.6 31.2 20.64 31.2 19.2C31.2 17.76 30.24 16.8 28.8 16.8H7.2C5.76 16.8 4.8 17.76 4.8 19.2C4.8 20.64 5.76 21.6 7.2 21.6ZM40.8 38.4L44.4 48L48 38.4H40.8ZM42 0H46.8C47.52 0 48 0.48 48 1.2V33.6H40.8V1.2C40.8 0.48 41.28 0 42 0Z" fill="#4A90E2"/>
</svg>
