<svg width="38" height="38" viewBox="0 0 38 38" fill="none" xmlns="http://www.w3.org/2000/svg">
<path fill-rule="evenodd" clip-rule="evenodd" d="M4.35417 0C1.94908 0 0 1.94908 0 4.35417V18.2083H18.2083V0H4.35417ZM11.4792 10.6875H9.89583V12.2708C9.89583 12.9263 9.36383 13.4583 8.70833 13.4583C8.05283 13.4583 7.52083 12.9263 7.52083 12.2708V10.6875H5.9375C5.282 10.6875 4.75 10.1555 4.75 9.5C4.75 8.8445 5.282 8.3125 5.9375 8.3125H7.52083V6.72917C7.52083 6.07367 8.05283 5.54167 8.70833 5.54167C9.36383 5.54167 9.89583 6.07367 9.89583 6.72917V8.3125H11.4792C12.1347 8.3125 12.6667 8.8445 12.6667 9.5C12.6667 10.1555 12.1347 10.6875 11.4792 10.6875ZM0 19.7917V33.6458C0 36.0509 1.94908 38 4.35417 38H18.2083V19.7917H0ZM11.9225 30.0358C12.3864 30.4997 12.3864 31.2518 11.9225 31.7157C11.6913 31.9469 11.3873 32.0625 11.0833 32.0625C10.7793 32.0625 10.4753 31.9469 10.2442 31.7142L9.10417 30.5742L7.96417 31.7142C7.733 31.9453 7.429 32.0625 7.125 32.0625C6.821 32.0625 6.517 31.9469 6.28583 31.7142C5.82192 31.2502 5.82192 30.4982 6.28583 30.0342L7.42583 28.8942L6.28583 27.7542C5.82192 27.2903 5.82192 26.5382 6.28583 26.0743C6.74975 25.6104 7.50183 25.6104 7.96575 26.0743L9.10575 27.2143L10.2458 26.0743C10.7097 25.6104 11.4618 25.6104 11.9257 26.0743C12.3896 26.5382 12.3896 27.2903 11.9257 27.7542L10.7857 28.8942L11.9225 30.0358ZM19.7917 0H33.6458C36.0509 0 38 1.94908 38 4.35417V18.2083H19.7917V0ZM25.7292 10.2917H32.8542C33.5097 10.2917 34.0417 9.75967 34.0417 9.10417C34.0417 8.44867 33.5097 7.91667 32.8542 7.91667H25.7292C25.0737 7.91667 24.5417 8.44867 24.5417 9.10417C24.5417 9.75967 25.0737 10.2917 25.7292 10.2917ZM19.7917 38V19.7917H38V33.6458C38 36.0509 36.0509 38 33.6458 38H19.7917ZM25.3333 32.4583H32.4583C33.1138 32.4583 33.6458 31.9263 33.6458 31.2708C33.6458 30.6153 33.1138 30.0833 32.4583 30.0833H25.3333C24.6778 30.0833 24.1458 30.6153 24.1458 31.2708C24.1458 31.9263 24.6778 32.4583 25.3333 32.4583ZM32.4583 27.7083H25.3333C24.6778 27.7083 24.1458 27.1763 24.1458 26.5208C24.1458 25.8653 24.6778 25.3333 25.3333 25.3333H32.4583C33.1138 25.3333 33.6458 25.8653 33.6458 26.5208C33.6458 27.1763 33.1138 27.7083 32.4583 27.7083Z" fill="#4A90E2"/>
</svg>
