<svg width="64" height="49" viewBox="0 0 64 49" fill="none" xmlns="http://www.w3.org/2000/svg">
<path fill-rule="evenodd" clip-rule="evenodd" d="M56.4941 2.29512V36.7103C56.4941 37.9721 55.4656 39.0013 54.2013 39.0045C48.8705 39.0173 39.9394 40.1307 33.7781 46.5922V10.5762C33.7781 10.1484 33.8869 9.74649 34.0927 9.41393C39.1498 1.25273 48.8675 0.0127411 54.2101 0H54.2157C54.8204 0 55.3901 0.236466 55.82 0.666207C56.2547 1.1007 56.4941 1.67923 56.4941 2.29512ZM9.78471 0.00021595H9.79009C15.1329 0.0127411 24.8506 1.25273 29.9075 9.41393C30.1133 9.74649 30.2223 10.1484 30.2223 10.5762V46.5924C24.0611 40.1309 15.1299 39.0175 9.79914 39.0047C8.53466 39.0015 7.50613 37.9723 7.50613 36.7103V2.29534C7.50613 1.67945 7.74553 1.10092 8.18018 0.666423C8.61008 0.236682 9.1794 0.00021595 9.78471 0.00021595ZM61.7102 7.93682H60.0497V36.7103C60.0497 39.9325 57.43 42.5599 54.2097 42.5679C49.6881 42.5787 42.2326 43.4648 36.9525 48.4729C46.0845 46.2322 55.7112 47.6888 61.1976 48.9417C61.8826 49.098 62.5905 48.9365 63.1393 48.4981C63.6862 48.0608 64 47.4072 64 46.7055V10.2315C64.0002 8.96626 62.9728 7.93682 61.7102 7.93682ZM3.95034 7.93682V36.7103C3.95034 39.9325 6.57026 42.5599 9.79031 42.5677C14.3119 42.5785 21.7674 43.4643 27.0473 48.4722C17.9158 46.2315 8.28878 47.6879 2.80243 48.9411C2.11632 49.0978 1.40908 48.9357 0.860663 48.4975C0.313752 48.0602 0 47.4067 0 46.7049V10.2315C0 8.96626 1.02745 7.93682 2.28979 7.93682H3.95034Z" fill="white"/>
</svg>
