<svg width="42" height="48" viewBox="0 0 42 48" fill="none" xmlns="http://www.w3.org/2000/svg">
<path fill-rule="evenodd" clip-rule="evenodd" d="M28.4554 6.7616C28.4934 6.86139 28.5364 6.95935 28.5841 7.05457C25.9782 7.65927 23.4378 8.51895 21 9.62124C18.5622 8.51895 16.0222 7.65927 13.4159 7.05457C13.4516 6.95386 13.4947 6.8559 13.545 6.7616C15.5726 2.46093 18.2806 0 21 0C23.7194 0 26.4274 2.46093 28.4554 6.7616ZM31.1043 15.5978C30.0612 14.8123 28.971 14.0505 27.834 13.3241C26.3221 12.3632 24.7863 11.4843 23.2505 10.7107C25.2121 9.90734 27.2401 9.27609 29.3112 8.82428C30.1198 11.0206 30.7201 13.2884 31.1043 15.5978ZM31.5031 8.43747C31.3969 8.44754 31.2911 8.4631 31.1867 8.48416C32.1991 11.3365 32.891 14.2918 33.2495 17.297C35.1489 18.874 36.9094 20.6112 38.513 22.488C38.8761 21.9959 39.2163 21.4919 39.5327 20.9884C42.0644 16.9688 42.6743 13.3474 41.2205 11.0742C39.7552 8.78903 36.2153 7.82819 31.5031 8.43747ZM12.6892 8.82428C14.7608 9.27426 16.7883 9.90597 18.7495 10.7107C17.2137 11.4843 15.6784 12.3632 14.166 13.3241C13.0409 14.0505 11.9388 14.8123 10.8957 15.5978C11.2799 13.2884 11.8802 11.0206 12.6892 8.82428ZM37.3408 24C36.1635 22.586 34.8906 21.2548 33.5311 20.0156C33.6245 21.3161 33.6717 22.6523 33.6717 24C33.6717 25.3477 33.6245 26.672 33.5311 27.9844C34.8906 26.7452 36.1635 25.4136 37.3408 24ZM21 26.531C22.3984 26.531 23.5321 25.398 23.5321 24C23.5321 22.602 22.3984 21.4686 21 21.4686C19.6016 21.4686 18.4683 22.602 18.4683 24C18.4683 25.398 19.6016 26.531 21 26.531ZM10.5207 18.2693C13.741 15.6674 17.2586 13.4568 21 11.6835C23.0074 12.6283 24.9498 13.7045 26.8143 14.9061C28.4275 15.9448 29.9847 17.0672 31.4798 18.2693C31.6931 20.1722 31.7989 22.0852 31.7962 24C31.7989 25.9144 31.6931 27.8278 31.4798 29.7303C29.9902 30.9401 28.4325 32.063 26.8143 33.0934C24.9498 34.2951 23.0074 35.3717 21 36.3161C18.9944 35.369 17.052 34.2928 15.1861 33.0934C13.573 32.0552 12.0157 30.9328 10.5207 29.7303C10.0985 25.9217 10.0985 22.0783 10.5207 18.2693ZM16.5928 24C16.5928 26.4335 18.5658 28.406 21 28.406C23.4337 28.405 25.4063 26.433 25.4077 24C25.4077 21.5665 23.4341 19.5936 21 19.5936C18.5658 19.5936 16.5928 21.5665 16.5928 24ZM29.3112 39.1757C27.2397 38.7253 25.2117 38.094 23.2505 37.2888C24.7863 36.5157 26.3221 35.6368 27.834 34.6755C28.9595 33.949 30.0612 33.1873 31.1043 32.4022C30.7201 34.7112 30.1198 36.9789 29.3112 39.1757ZM13.4159 40.945C13.464 41.0406 13.507 41.1381 13.545 41.2379C15.5726 45.5391 18.2806 48 21 48C23.7194 48 26.4274 45.5391 28.4554 41.2379C28.5053 41.1436 28.5483 41.0457 28.5841 40.945C25.9782 40.3407 23.4378 39.4811 21 38.3788C18.5622 39.4811 16.0222 40.3407 13.4159 40.945ZM33.2495 30.703C35.1461 29.1224 36.9067 27.3861 38.513 25.5115C38.8761 26.0155 39.2163 26.5076 39.5327 27.0235C42.0644 31.0427 42.6858 34.6521 41.2205 36.9373C39.7552 39.2224 36.2153 40.1718 31.5031 39.5625C31.4501 39.5566 31.3972 39.5477 31.3443 39.5389L31.3442 39.5389C31.2917 39.5301 31.2392 39.5213 31.1867 39.5154C32.1478 36.8672 32.8392 33.879 33.2495 30.703ZM3.48745 22.488C5.09374 20.6139 6.85433 18.8772 8.75046 17.297C9.16073 14.121 9.85261 11.1328 10.8137 8.48416C10.7596 8.47831 10.7057 8.46934 10.6517 8.46039C10.6002 8.45183 10.5488 8.44328 10.4973 8.43747C9.61451 8.32349 8.72619 8.26489 7.83605 8.26169C4.46047 8.26169 1.95168 9.24588 0.779479 11.0742C-0.685776 13.3593 -0.0644162 16.9688 2.46773 20.9884C2.78413 21.4919 3.12389 21.9845 3.48745 22.488ZM2.46773 27.0116C2.78413 26.5076 3.12389 26.0036 3.48745 25.5115C5.08183 27.3934 6.84334 29.1269 8.75046 30.6911C9.10945 33.6963 9.80132 36.6516 10.8137 39.5039C10.7089 39.525 10.6036 39.5406 10.4973 39.5506C5.7847 40.1718 2.24473 39.211 0.779479 36.9258C-0.67387 34.6521 -0.0644162 31.0312 2.46773 27.0116ZM14.166 34.6755C13.029 33.949 11.9388 33.1873 10.8957 32.4022C11.2799 34.7112 11.8802 36.9789 12.6892 39.1757C14.7603 38.7239 16.7878 38.0922 18.7495 37.2888C17.2137 36.5157 15.6784 35.6368 14.166 34.6755ZM8.46932 27.9844C7.10938 26.7452 5.83644 25.4136 4.65966 24C5.83644 22.586 7.10938 21.2548 8.46932 20.0156C8.37545 21.328 8.32874 22.6523 8.32874 24C8.32874 25.3477 8.37545 26.6834 8.46932 27.9844Z" fill="#F5A623"/>
</svg>
