<svg width="64" height="64" viewBox="0 0 64 64" fill="none" xmlns="http://www.w3.org/2000/svg">
<path fill-rule="evenodd" clip-rule="evenodd" d="M57.6 9.6H60.8C62.72 9.6 64 11.2 64 12.8V60.8C64 62.4 62.72 64 60.8 64H3.2C1.28 64 0 62.4 0 60.8V12.8C0 11.2 1.6 9.6 3.2 9.6H9.6V4.8C9.6 2.24 11.84 0 14.4 0C16.96 0 19.2 2.24 19.2 4.8V9.6H48V4.8C48 2.24 50.24 0 52.8 0C55.36 0 57.6 2.24 57.6 4.8V9.6ZM6.4 57.6H19.2V44.8H6.4V57.6ZM19.2 38.4H6.4V25.6H19.2V38.4ZM25.6 57.6H38.4V44.8H25.6V57.6ZM38.4 38.4H25.6V25.6H38.4V38.4ZM44.8 38.4H57.6V25.6H44.8V38.4Z" fill="#4A90E2"/>
</svg>
